<?xml version="1.0" encoding="UTF-8"?>
<!DOCTYPE svg PUBLIC "-//W3C//DTD SVG 1.1//EN" "http://www.w3.org/Graphics/SVG/1.1/DTD/svg11.dtd">
<svg xmlns="http://www.w3.org/2000/svg" version="1.1" width="142px" height="219px" style="shape-rendering:geometricPrecision; text-rendering:geometricPrecision; image-rendering:optimizeQuality; fill-rule:evenodd; clip-rule:evenodd" xmlns:xlink="http://www.w3.org/1999/xlink">
<g><path style="opacity:0.004" fill="#fefffe" d="M 73.5,-0.5 C 73.8333,-0.5 74.1667,-0.5 74.5,-0.5C 74.5,-0.166667 74.5,0.166667 74.5,0.5C 74.1667,0.166667 73.8333,-0.166667 73.5,-0.5 Z"/></g>
<g><path style="opacity:0.997" fill="#2a2928" d="M 74.5,0.5 C 76.099,0.232191 77.4324,0.565525 78.5,1.5C 78.8333,2.5 79.5,3.16667 80.5,3.5C 80.634,5.29152 80.3007,6.95819 79.5,8.5C 77.1206,11.1402 74.6206,11.1402 72,8.5C 70.8366,5.02893 71.6699,2.36227 74.5,0.5 Z"/></g>
<g><path style="opacity:0.016" fill="#cacac6" d="M 78.5,1.5 C 79.8333,1.5 80.5,2.16667 80.5,3.5C 79.5,3.16667 78.8333,2.5 78.5,1.5 Z"/></g>
<g><path style="opacity:0.004" fill="#fefffe" d="M 81.5,2.5 C 82.8333,3.16667 82.8333,3.16667 81.5,2.5 Z"/></g>
<g><path style="opacity:0.004" fill="#fefffe" d="M 69.5,4.5 C 70.525,4.89657 70.6917,5.56323 70,6.5C 69.5357,5.90558 69.369,5.23891 69.5,4.5 Z"/></g>
<g><path style="opacity:0.014" fill="#ebebe8" d="M 80.5,3.5 C 80.8333,3.5 81.1667,3.5 81.5,3.5C 81.5774,4.74975 82.244,5.58309 83.5,6C 82.244,6.41691 81.5774,7.25025 81.5,8.5C 80.8333,8.5 80.1667,8.5 79.5,8.5C 80.3007,6.95819 80.634,5.29152 80.5,3.5 Z"/></g>
<g><path style="opacity:0.004" fill="#fefffe" d="M 81.5,8.5 C 82.1667,8.5 82.5,8.83333 82.5,9.5C 82.1667,9.16667 81.8333,8.83333 81.5,8.5 Z"/></g>
<g><path style="opacity:0.024" fill="#feffd3" d="M 81.5,9.5 C 80.8333,10.1667 80.8333,10.1667 81.5,9.5 Z"/></g>
<g><path style="opacity:1" fill="#1f1e1e" d="M 90.5,7.5 C 92.2261,9.82007 92.8928,12.4867 92.5,15.5C 91.6879,16.9931 90.3545,17.6598 88.5,17.5C 87.2739,17.4805 86.2739,17.1471 85.5,16.5C 85.1667,15.5 84.5,14.8333 83.5,14.5C 83.5,12.8333 83.5,11.1667 83.5,9.5C 85.265,6.55122 87.5983,5.88455 90.5,7.5 Z"/></g>
<g><path style="opacity:0.651" fill="#9d9d9a" d="M 90.5,7.5 C 91.4959,7.41423 92.3292,7.74756 93,8.5C 93.7958,11.0385 93.6291,13.3718 92.5,15.5C 92.8928,12.4867 92.2261,9.82007 90.5,7.5 Z"/></g>
<g><path style="opacity:0.612" fill="#a6a5a2" d="M 64.5,13.5 C 62.8333,13.5 61.1667,13.5 59.5,13.5C 59.369,12.7611 59.5357,12.0944 60,11.5C 61.3333,12.8333 62.6667,12.8333 64,11.5C 64.4643,12.0944 64.631,12.7611 64.5,13.5 Z"/></g>
<g><path style="opacity:0.004" fill="#fefffe" d="M 65.5,12.5 C 66.8333,13.1667 66.8333,13.1667 65.5,12.5 Z"/></g>
<g><path style="opacity:0.125" fill="#e4e4e0" d="M 82.5,9.5 C 82.8333,9.5 83.1667,9.5 83.5,9.5C 83.5,11.1667 83.5,12.8333 83.5,14.5C 82.7109,14.2172 82.0442,13.7172 81.5,13C 82.3366,11.9887 82.67,10.8221 82.5,9.5 Z"/></g>
<g><path style="opacity:0.995" fill="#1c1c1b" d="M 59.5,13.5 C 61.1667,13.5 62.8333,13.5 64.5,13.5C 65.1495,15.4352 65.4828,17.4352 65.5,19.5C 65.5,19.8333 65.5,20.1667 65.5,20.5C 63.0175,22.9569 60.6842,22.9569 58.5,20.5C 58.5,18.5 58.5,16.5 58.5,14.5C 58.5,13.8333 58.8333,13.5 59.5,13.5 Z"/></g>
<g><path style="opacity:0.09" fill="#c9c9c7" d="M 64.5,13.5 C 64.8333,13.5 65.1667,13.5 65.5,13.5C 66.7416,15.6112 66.7416,17.6112 65.5,19.5C 65.4828,17.4352 65.1495,15.4352 64.5,13.5 Z"/></g>
<g><path style="opacity:0.004" fill="#c3c2bf" d="M 83.5,14.5 C 84.5,14.8333 85.1667,15.5 85.5,16.5C 84.1667,16.5 83.5,15.8333 83.5,14.5 Z"/></g>
<g><path style="opacity:0.006" fill="#fefffe" d="M 75.5,19.5 C 75.1667,19.5 74.8333,19.5 74.5,19.5C 73.105,18.3523 73.2716,17.3523 75,16.5C 75.4828,17.448 75.6495,18.448 75.5,19.5 Z"/></g>
<g><path style="opacity:0.6" fill="#8d8b89" d="M 58.5,14.5 C 58.5,16.5 58.5,18.5 58.5,20.5C 57.7109,20.2172 57.0442,19.7172 56.5,19C 57.0989,17.3775 57.7656,15.8775 58.5,14.5 Z"/></g>
<g><path style="opacity:0.012" fill="#fefffe" d="M 65.5,20.5 C 66.8333,21.1667 66.8333,21.1667 65.5,20.5 Z"/></g>
<g><path style="opacity:0.993" fill="#201f1d" d="M 74.5,19.5 C 74.8333,19.5 75.1667,19.5 75.5,19.5C 75.8333,19.5 76.1667,19.5 76.5,19.5C 77.3414,21.3792 77.6747,23.3792 77.5,25.5C 75.8333,25.5 74.1667,25.5 72.5,25.5C 71.8333,25.5 71.5,25.1667 71.5,24.5C 71.5,24.1667 71.5,23.8333 71.5,23.5C 71.0882,21.0274 72.0882,19.6941 74.5,19.5 Z"/></g>
<g><path style="opacity:0.009" fill="#fefffe" d="M 57.5,22.5 C 58.4584,22.9528 59.2917,23.6195 60,24.5C 61.7438,23.9698 63.2438,23.9698 64.5,24.5C 60.5411,25.6599 56.5411,25.8265 52.5,25C 54.4913,24.6264 56.158,23.793 57.5,22.5 Z"/></g>
<g><path style="opacity:0.012" fill="#fefffe" d="M 66.5,22.5 C 67.8333,23.1667 67.8333,23.1667 66.5,22.5 Z"/></g>
<g><path style="opacity:0.009" fill="#fefffe" d="M 71.5,23.5 C 71.5,23.8333 71.5,24.1667 71.5,24.5C 69.5976,25.5109 67.5976,25.6776 65.5,25C 67.3289,24.7265 68.8289,23.8932 70,22.5C 70.3826,23.056 70.8826,23.3893 71.5,23.5 Z"/></g>
<g><path style="opacity:0.011" fill="#e5e5e4" d="M 76.5,19.5 C 77.9245,21.1443 79.5911,22.6443 81.5,24C 85.1667,24.3333 88.8333,24.6667 92.5,25C 87.9805,25.1753 83.6472,25.6753 79.5,26.5C 77.1667,26.5 74.8333,26.5 72.5,26.5C 72.5,26.1667 72.5,25.8333 72.5,25.5C 74.1667,25.5 75.8333,25.5 77.5,25.5C 77.6747,23.3792 77.3414,21.3792 76.5,19.5 Z"/></g>
<g><path style="opacity:0.595" fill="#6b6b67" d="M 72.5,26.5 C 74.8333,26.5 77.1667,26.5 79.5,26.5C 85.69,26.1771 91.69,26.5104 97.5,27.5C 81.4524,27.1967 65.4524,27.5301 49.5,28.5C 49.9867,27.5266 50.4867,26.5266 51,25.5C 58.0787,26.4799 65.2454,26.8132 72.5,26.5 Z"/></g>
<g><path style="opacity:0.999" fill="#111111" d="M 97.5,27.5 C 97.8333,28.5 98.5,29.1667 99.5,29.5C 100.338,29.8417 100.672,30.5084 100.5,31.5C 100.5,32.8333 100.5,34.1667 100.5,35.5C 100.672,36.4916 100.338,37.1583 99.5,37.5C 98.5,37.8333 97.8333,38.5 97.5,39.5C 97.1667,39.5 96.8333,39.5 96.5,39.5C 95.1714,44.6238 94.5048,50.1238 94.5,56C 94.5006,61.6771 94.8339,67.1771 95.5,72.5C 95.3284,73.4916 95.6618,74.1583 96.5,74.5C 97.5,75.8333 98.5,77.1667 99.5,78.5C 99.5,78.8333 99.5,79.1667 99.5,79.5C 99.3284,80.4916 99.6618,81.1583 100.5,81.5C 104.008,87.1823 107.008,93.1823 109.5,99.5C 109.427,101.027 110.094,102.027 111.5,102.5C 113.025,104.216 114.025,106.216 114.5,108.5C 114.427,110.027 115.094,111.027 116.5,111.5C 117.674,112.514 118.34,113.847 118.5,115.5C 118.328,116.492 118.662,117.158 119.5,117.5C 120.674,118.514 121.34,119.847 121.5,121.5C 121.427,123.027 122.094,124.027 123.5,124.5C 124.784,127.402 125.784,130.402 126.5,133.5C 126.647,138.214 126.314,142.881 125.5,147.5C 125.598,149.553 124.931,151.22 123.5,152.5C 122.5,152.5 121.5,152.5 120.5,152.5C 120.5,153.833 120.5,155.167 120.5,156.5C 119.29,156.932 118.29,157.599 117.5,158.5C 116.341,160.25 114.674,161.25 112.5,161.5C 111.508,161.328 110.842,161.662 110.5,162.5C 108.254,163.21 105.92,163.71 103.5,164C 83.1667,164.667 62.8333,164.667 42.5,164C 37.135,163.148 32.4683,160.982 28.5,157.5C 28.1667,156.5 27.5,155.833 26.5,155.5C 26.5,154.833 26.1667,154.5 25.5,154.5C 23.3565,151.878 22.0231,148.878 21.5,145.5C 21.3921,140.13 21.7255,134.797 22.5,129.5C 23.6737,128.486 24.3404,127.153 24.5,125.5C 25.3257,122.515 26.659,119.849 28.5,117.5C 29.4013,116.71 30.0679,115.71 30.5,114.5C 31.6417,110.883 33.3084,107.55 35.5,104.5C 36.4013,103.71 37.0679,102.71 37.5,101.5C 38.9488,95.9337 41.6155,90.6003 45.5,85.5C 46.3382,85.1583 46.6716,84.4916 46.5,83.5C 47.1712,82.1529 47.1712,80.9862 46.5,80C 48.452,78.5881 49.7853,76.7547 50.5,74.5C 51.1667,73.8333 51.8333,73.1667 52.5,72.5C 53.1661,67.1771 53.4994,61.6771 53.5,56C 53.4952,50.1238 52.8286,44.6238 51.5,39.5C 51.0269,38.0937 50.0269,37.427 48.5,37.5C 48.2641,34.3915 48.5975,31.3915 49.5,28.5C 65.4524,27.5301 81.4524,27.1967 97.5,27.5 Z M 83.5,39.5 C 83.3335,51.8378 83.5001,64.1712 84,76.5C 86.8453,81.5273 89.6786,86.5273 92.5,91.5C 92.1961,92.1499 91.8627,92.8165 91.5,93.5C 85.3333,93.8333 79.1667,94.1667 73,94.5C 66.462,94.4962 60.2953,93.8296 54.5,92.5C 55.3382,92.1583 55.6716,91.4916 55.5,90.5C 56.9063,90.0269 57.573,89.0269 57.5,87.5C 59.1042,86.713 59.7709,85.3797 59.5,83.5C 61.9754,82.3126 62.9754,80.3126 62.5,77.5C 63.404,76.791 63.7373,75.791 63.5,74.5C 64.4279,63.8535 64.9279,53.1868 65,42.5C 65.6924,41.9747 66.1924,41.3081 66.5,40.5C 72.1278,39.5046 77.7945,39.1712 83.5,39.5 Z M 49.5,102.5 C 65.5,102.5 81.5,102.5 97.5,102.5C 97.5,103.167 97.5,103.833 97.5,104.5C 98.5,105.167 99.5,105.833 100.5,106.5C 101.508,108.544 102.508,110.544 103.5,112.5C 102.565,115.113 102.398,117.779 103,120.5C 103.278,119.584 103.778,118.918 104.5,118.5C 104.586,117.504 104.252,116.671 103.5,116C 104.094,115.536 104.761,115.369 105.5,115.5C 107.576,120.651 109.91,125.651 112.5,130.5C 111.167,131.167 111.167,131.833 112.5,132.5C 112.281,133.675 112.614,134.675 113.5,135.5C 114.107,135.376 114.44,135.043 114.5,134.5C 115.833,137.167 115.833,139.833 114.5,142.5C 114.662,140.473 114.495,138.473 114,136.5C 113.781,137.938 113.281,139.271 112.5,140.5C 111.376,138.631 110.543,136.631 110,134.5C 109.349,136.235 109.515,137.902 110.5,139.5C 109.926,141.059 109.26,142.559 108.5,144C 109.861,145.584 110.528,147.418 110.5,149.5C 110.167,149.5 109.833,149.5 109.5,149.5C 109.5,150.167 109.167,150.5 108.5,150.5C 107.033,147.742 106.367,148.075 106.5,151.5C 106.167,151.5 105.833,151.5 105.5,151.5C 85.4972,151.667 65.4972,151.5 45.5,151C 46.8882,150.111 46.7215,149.611 45,149.5C 44.0979,149.743 43.2646,150.077 42.5,150.5C 41.4722,147.902 40.4722,147.902 39.5,150.5C 39.5875,147.402 39.0875,147.068 38,149.5C 37.6174,148.944 37.1174,148.611 36.5,148.5C 36.5,148.167 36.5,147.833 36.5,147.5C 36.1667,147.5 35.8333,147.5 35.5,147.5C 36.6201,145.042 35.9535,143.042 33.5,141.5C 34.2161,139.444 34.8828,137.277 35.5,135C 35.1667,134.667 34.8333,134.333 34.5,134C 35.6966,131.985 37.0299,130.151 38.5,128.5C 38.8581,126.033 40.1914,123.866 42.5,122C 41.3659,120.984 41.6992,120.317 43.5,120C 43.2155,118.044 43.2155,115.877 43.5,113.5C 45.7619,112.655 46.4286,111.322 45.5,109.5C 47.3765,107.637 49.3765,105.803 51.5,104C 50.5842,103.722 49.9175,103.222 49.5,102.5 Z M 60.5,129.5 C 59.713,131.104 58.3797,131.771 56.5,131.5C 57.1834,129.824 58.5168,129.157 60.5,129.5 Z M 70.5,129.5 C 77.1406,130.777 83.8072,130.777 90.5,129.5C 91.6085,130.29 92.9419,130.79 94.5,131C 92.567,131.251 90.7337,131.751 89,132.5C 80.5783,131.682 72.0783,131.182 63.5,131C 66.0356,130.814 68.369,130.314 70.5,129.5 Z M 114.5,142.5 C 114.5,143.5 114.5,144.5 114.5,145.5C 112.443,145.043 112.443,144.043 114.5,142.5 Z"/></g>
<g><path style="opacity:0.004" fill="#c9c9c8" d="M 97.5,27.5 C 98.8333,27.5 99.5,28.1667 99.5,29.5C 98.5,29.1667 97.8333,28.5 97.5,27.5 Z"/></g>
<g><path style="opacity:0.004" fill="#fefffe" d="M 45.5,31.5 C 46.525,31.8966 46.6917,32.5632 46,33.5C 45.5357,32.9056 45.369,32.2389 45.5,31.5 Z"/></g>
<g><path style="opacity:0.624" fill="#a1a19d" d="M 49.5,28.5 C 48.5975,31.3915 48.2641,34.3915 48.5,37.5C 47.3592,34.3601 47.1925,31.0267 48,27.5C 48.3826,28.056 48.8826,28.3893 49.5,28.5 Z"/></g>
<g><path style="opacity:0.006" fill="#f3f7f3" d="M 100.5,31.5 C 101.249,32.531 101.915,33.6976 102.5,35C 101.906,35.4643 101.239,35.631 100.5,35.5C 100.5,34.1667 100.5,32.8333 100.5,31.5 Z"/></g>
<g><path style="opacity:0.439" fill="#9c9a97" d="M 48.5,37.5 C 50.0269,37.427 51.0269,38.0937 51.5,39.5C 49.9731,39.573 48.9731,38.9063 48.5,37.5 Z"/></g>
<g><path style="opacity:0.021" fill="#fbfbf8" d="M 99.5,37.5 C 99.573,39.0269 98.9063,40.0269 97.5,40.5C 97.5,40.1667 97.5,39.8333 97.5,39.5C 97.8333,38.5 98.5,37.8333 99.5,37.5 Z"/></g>
<g><path style="opacity:0.145" fill="#dadbd7" d="M 83.5,39.5 C 77.7945,39.1712 72.1278,39.5046 66.5,40.5C 66.1924,41.3081 65.6924,41.9747 65,42.5C 64.9279,53.1868 64.4279,63.8535 63.5,74.5C 63.5,62.5 63.5,50.5 63.5,38.5C 70.3543,38.176 77.021,38.5093 83.5,39.5 Z"/></g>
<g><path style="opacity:0.008" fill="#f3f3f1" d="M 79.5,61.5 C 81.2432,59.8739 81.7432,57.8739 81,55.5C 79.6439,54.6198 78.1439,54.2865 76.5,54.5C 76.3932,52.6214 76.8932,52.2881 78,53.5C 80,52.8333 81.3333,51.5 82,49.5C 82.4988,53.4862 82.6655,57.4862 82.5,61.5C 81.5,61.5 80.5,61.5 79.5,61.5 Z"/></g>
<g><path style="opacity:0.008" fill="#d9d9d6" d="M 76.5,54.5 C 76.1667,55.5 75.5,56.1667 74.5,56.5C 73.3398,54.7973 74.0065,54.1307 76.5,54.5 Z"/></g>
<g><path style="opacity:0.993" fill="#20201e" d="M 76.5,54.5 C 78.1439,54.2865 79.6439,54.6198 81,55.5C 81.7432,57.8739 81.2432,59.8739 79.5,61.5C 75.8136,62.4911 74.1469,60.8244 74.5,56.5C 75.5,56.1667 76.1667,55.5 76.5,54.5 Z"/></g>
<g><path style="opacity:0.149" fill="#cfd0ce" d="M 96.5,39.5 C 96.5,40.1667 96.8333,40.5 97.5,40.5C 97.2172,41.2891 96.7172,41.9558 96,42.5C 95.5002,52.4944 95.3335,62.4944 95.5,72.5C 94.8339,67.1771 94.5006,61.6771 94.5,56C 94.5048,50.1238 95.1714,44.6238 96.5,39.5 Z"/></g>
<g><path style="opacity:0.235" fill="#c7c5c3" d="M 51.5,39.5 C 52.8286,44.6238 53.4952,50.1238 53.5,56C 53.4994,61.6771 53.1661,67.1771 52.5,72.5C 51.8957,62.7037 51.5623,51.7037 51.5,39.5 Z"/></g>
<g><path style="opacity:0.988" fill="#595955" d="M 72.5,69.5 C 77.0685,69.0826 78.5685,71.0826 77,75.5C 75.3333,75.5 73.6667,75.5 72,75.5C 71.3224,73.4024 71.4891,71.4024 72.5,69.5 Z"/></g>
<g><path style="opacity:0.008" fill="#edecdf" d="M 95.5,72.5 C 97.6977,72.4088 98.0311,73.0755 96.5,74.5C 95.6618,74.1583 95.3284,73.4916 95.5,72.5 Z"/></g>
<g><path style="opacity:0.008" fill="#fefffe" d="M 50.5,74.5 C 49.8333,73.1667 49.8333,73.1667 50.5,74.5 Z"/></g>
<g><path style="opacity:0.004" fill="#fefffe" d="M 99.5,77.5 C 100.833,78.1667 100.833,78.1667 99.5,77.5 Z"/></g>
<g><path style="opacity:0.006" fill="#f0f0ef" d="M 99.5,79.5 C 101.698,79.4088 102.031,80.0755 100.5,81.5C 99.6618,81.1583 99.3284,80.4916 99.5,79.5 Z"/></g>
<g><path style="opacity:0.997" fill="#2b2b2b" d="M 79.5,79.5 C 79.5,79.8333 79.5,80.1667 79.5,80.5C 79.8333,81.5 80.5,82.1667 81.5,82.5C 83.2932,85.9471 82.2932,88.4471 78.5,90C 76.9343,90.765 75.6009,90.5983 74.5,89.5C 74.1667,88.5 73.5,87.8333 72.5,87.5C 72.298,85.0504 72.6314,82.717 73.5,80.5C 75.3792,79.6586 77.3792,79.3253 79.5,79.5 Z"/></g>
<g><path style="opacity:0.004" fill="#d8d8d7" d="M 79.5,80.5 C 80.8333,80.5 81.5,81.1667 81.5,82.5C 80.5,82.1667 79.8333,81.5 79.5,80.5 Z"/></g>
<g><path style="opacity:0.086" fill="#d6d6d7" d="M 62.5,77.5 C 62.9754,80.3126 61.9754,82.3126 59.5,83.5C 59.9925,81.1815 60.9925,79.1815 62.5,77.5 Z"/></g>
<g><path style="opacity:0.027" fill="#e0dfcc" d="M 46.5,83.5 C 46.6716,84.4916 46.3382,85.1583 45.5,85.5C 43.9689,84.0755 44.3023,83.4088 46.5,83.5 Z"/></g>
<g><path style="opacity:0.565" fill="#acaca7" d="M 72.5,79.5 C 72.5,80.1667 72.8333,80.5 73.5,80.5C 72.6314,82.717 72.298,85.0504 72.5,87.5C 71.1667,84.8333 71.1667,82.1667 72.5,79.5 Z"/></g>
<g><path style="opacity:0.071" fill="#cbcbcc" d="M 59.5,83.5 C 59.7709,85.3797 59.1042,86.713 57.5,87.5C 57.6596,85.847 58.3263,84.5137 59.5,83.5 Z"/></g>
<g><path style="opacity:0.008" fill="#d0d0cd" d="M 72.5,87.5 C 73.5,87.8333 74.1667,88.5 74.5,89.5C 73.1667,89.5 72.5,88.8333 72.5,87.5 Z"/></g>
<g><path style="opacity:0.102" fill="#c0c0c0" d="M 57.5,87.5 C 57.573,89.0269 56.9063,90.0269 55.5,90.5C 55.427,88.9731 56.0937,87.9731 57.5,87.5 Z"/></g>
<g><path style="opacity:0.145" fill="#d8d9d3" d="M 92.5,91.5 C 94.1042,92.287 94.7709,93.6203 94.5,95.5C 80.496,95.6666 66.496,95.4999 52.5,95C 53.0659,94.0053 53.7326,93.172 54.5,92.5C 60.2953,93.8296 66.462,94.4962 73,94.5C 79.1667,94.1667 85.3333,93.8333 91.5,93.5C 91.8627,92.8165 92.1961,92.1499 92.5,91.5 Z"/></g>
<g><path style="opacity:0.004" fill="#e5e5e2" d="M 37.5,101.5 C 37.0679,102.71 36.4013,103.71 35.5,104.5C 35.2852,102.821 35.9519,101.821 37.5,101.5 Z"/></g>
<g><path style="opacity:0.176" fill="#bcbcba" d="M 109.5,99.5 C 110.906,99.9731 111.573,100.973 111.5,102.5C 110.094,102.027 109.427,101.027 109.5,99.5 Z"/></g>
<g><path style="opacity:0.01" fill="#e4eae4" d="M 97.5,102.5 C 99.2624,103.262 100.262,104.596 100.5,106.5C 99.5,105.833 98.5,105.167 97.5,104.5C 97.5,103.833 97.5,103.167 97.5,102.5 Z"/></g>
<g><path style="opacity:0.043" fill="#e1e0e2" d="M 49.5,102.5 C 49.9175,103.222 50.5842,103.722 51.5,104C 49.3765,105.803 47.3765,107.637 45.5,109.5C 46.5957,106.968 47.9291,104.635 49.5,102.5 Z"/></g>
<g><path style="opacity:0.231" fill="#b5b5b2" d="M 114.5,108.5 C 115.906,108.973 116.573,109.973 116.5,111.5C 115.094,111.027 114.427,110.027 114.5,108.5 Z"/></g>
<g><path style="opacity:0.027" fill="#e2e2e9" d="M 45.5,109.5 C 46.4286,111.322 45.7619,112.655 43.5,113.5C 43.6596,111.847 44.3263,110.514 45.5,109.5 Z"/></g>
<g><path style="opacity:0.008" fill="#dddedb" d="M 30.5,114.5 C 30.0679,115.71 29.4013,116.71 28.5,117.5C 28.2852,115.821 28.9519,114.821 30.5,114.5 Z"/></g>
<g><path style="opacity:0.008" fill="#dadad9" d="M 118.5,115.5 C 120.698,115.409 121.031,116.075 119.5,117.5C 118.662,117.158 118.328,116.492 118.5,115.5 Z"/></g>
<g><path style="opacity:0.009" fill="#f7f7f4" d="M 103.5,112.5 C 104.401,113.29 105.068,114.29 105.5,115.5C 104.761,115.369 104.094,115.536 103.5,116C 104.252,116.671 104.586,117.504 104.5,118.5C 103.778,118.918 103.278,119.584 103,120.5C 102.398,117.779 102.565,115.113 103.5,112.5 Z"/></g>
<g><path style="opacity:0.014" fill="#eaeced" d="M 43.5,113.5 C 43.2155,115.877 43.2155,118.044 43.5,120C 41.6992,120.317 41.3659,120.984 42.5,122C 40.1914,123.866 38.8581,126.033 38.5,128.5C 37.0299,130.151 35.6966,131.985 34.5,134C 34.8333,134.333 35.1667,134.667 35.5,135C 34.8828,137.277 34.2161,139.444 33.5,141.5C 33.7845,139.585 33.4511,137.919 32.5,136.5C 32.687,134.436 33.187,132.436 34,130.5C 37.2085,124.739 40.3752,119.072 43.5,113.5 Z"/></g>
<g><path style="opacity:0.677" fill="#f8e893" d="M 100.5,120.5 C 83.5,120.5 66.5,120.5 49.5,120.5C 50.2625,119.732 51.2625,119.232 52.5,119C 67.8333,118.333 83.1667,118.333 98.5,119C 99.4158,119.278 100.082,119.778 100.5,120.5 Z"/></g>
<g><path style="opacity:1" fill="#f8d31f" d="M 49.5,120.5 C 66.5,120.5 83.5,120.5 100.5,120.5C 100.756,122.792 100.423,124.959 99.5,127C 83.6613,127.169 67.9946,127.669 52.5,128.5C 51.8333,128.5 51.5,128.833 51.5,129.5C 50.438,131.234 50.438,132.901 51.5,134.5C 69.6928,135.205 88.0261,135.871 106.5,136.5C 106.682,138.591 106.348,140.591 105.5,142.5C 85.8176,143.784 66.1509,143.784 46.5,142.5C 46.0269,141.094 45.0269,140.427 43.5,140.5C 43.5,140.167 43.5,139.833 43.5,139.5C 41.9133,136.081 41.2467,132.415 41.5,128.5C 43.1563,126.54 44.823,124.54 46.5,122.5C 46.9731,121.094 47.9731,120.427 49.5,120.5 Z"/></g>
<g><path style="opacity:0.118" fill="#cecbc9" d="M 121.5,121.5 C 122.906,121.973 123.573,122.973 123.5,124.5C 122.094,124.027 121.427,123.027 121.5,121.5 Z"/></g>
<g><path style="opacity:0.043" fill="#cccbc9" d="M 24.5,125.5 C 24.3404,127.153 23.6737,128.486 22.5,129.5C 21.5714,127.678 22.2381,126.345 24.5,125.5 Z"/></g>
<g><path style="opacity:0.165" fill="#fef7ae" d="M 46.5,122.5 C 44.823,124.54 43.1563,126.54 41.5,128.5C 41.7717,125.268 43.4384,123.268 46.5,122.5 Z"/></g>
<g><path style="opacity:0.404" fill="#fdea7c" d="M 100.5,120.5 C 102.441,122.011 102.941,124.011 102,126.5C 100.506,128.718 98.673,129.385 96.5,128.5C 95.8333,128.5 95.1667,128.5 94.5,128.5C 80.5,128.5 66.5,128.5 52.5,128.5C 67.9946,127.669 83.6613,127.169 99.5,127C 100.423,124.959 100.756,122.792 100.5,120.5 Z"/></g>
<g><path style="opacity:0.031" fill="#fefdd6" d="M 51.5,129.5 C 51.5,128.833 51.8333,128.5 52.5,128.5C 66.5,128.5 80.5,128.5 94.5,128.5C 93.4324,129.434 92.099,129.768 90.5,129.5C 83.8072,130.777 77.1406,130.777 70.5,129.5C 67.1667,129.5 63.8333,129.5 60.5,129.5C 58.5168,129.157 57.1834,129.824 56.5,131.5C 55.9694,132.795 54.6361,133.462 52.5,133.5C 52.3601,131.876 53.0267,130.71 54.5,130C 53.552,129.517 52.552,129.351 51.5,129.5 Z"/></g>
<g><path style="opacity:0.012" fill="#fffefd" d="M 94.5,128.5 C 95.1667,128.5 95.8333,128.5 96.5,128.5C 95.3984,130.092 96.065,130.925 98.5,131C 95.4557,131.359 95.1224,132.026 97.5,133C 88.8148,132.883 79.9815,133.05 71,133.5C 65.7843,133.494 60.951,132.827 56.5,131.5C 58.3797,131.771 59.713,131.104 60.5,129.5C 63.8333,129.5 67.1667,129.5 70.5,129.5C 68.369,130.314 66.0356,130.814 63.5,131C 72.0783,131.182 80.5783,131.682 89,132.5C 90.7337,131.751 92.567,131.251 94.5,131C 92.9419,130.79 91.6085,130.29 90.5,129.5C 92.099,129.768 93.4324,129.434 94.5,128.5 Z M 70.5,129.5 C 77.1406,130.777 83.8072,130.777 90.5,129.5C 91.6085,130.29 92.9419,130.79 94.5,131C 92.567,131.251 90.7337,131.751 89,132.5C 80.5783,131.682 72.0783,131.182 63.5,131C 66.0356,130.814 68.369,130.314 70.5,129.5 Z"/></g>
<g><path style="opacity:0.137" fill="#fdf7b3" d="M 41.5,128.5 C 41.2467,132.415 41.9133,136.081 43.5,139.5C 42.2101,138.942 41.3768,137.942 41,136.5C 40.1993,133.633 40.3659,130.966 41.5,128.5 Z"/></g>
<g><path style="opacity:0.006" fill="#fefffe" d="M 112.5,132.5 C 112.833,132.5 113.167,132.5 113.5,132.5C 113.328,133.492 113.662,134.158 114.5,134.5C 114.44,135.043 114.107,135.376 113.5,135.5C 112.614,134.675 112.281,133.675 112.5,132.5 Z"/></g>
<g><path style="opacity:0.043" fill="#fefda7" d="M 51.5,134.5 C 69.5031,134.333 87.5031,134.5 105.5,135C 106.056,135.383 106.389,135.883 106.5,136.5C 88.0261,135.871 69.6928,135.205 51.5,134.5 Z"/></g>
<g><path style="opacity:0.013" fill="#fbfbf8" d="M 114.5,142.5 C 112.443,144.043 112.443,145.043 114.5,145.5C 114.167,146.5 113.5,147.167 112.5,147.5C 112.167,148.5 111.5,149.167 110.5,149.5C 110.528,147.418 109.861,145.584 108.5,144C 109.26,142.559 109.926,141.059 110.5,139.5C 109.515,137.902 109.349,136.235 110,134.5C 110.543,136.631 111.376,138.631 112.5,140.5C 113.281,139.271 113.781,137.938 114,136.5C 114.495,138.473 114.662,140.473 114.5,142.5 Z"/></g>
<g><path style="opacity:0.004" fill="#fefffe" d="M 128.5,135.5 C 129.833,136.167 129.833,136.167 128.5,135.5 Z"/></g>
<g><path style="opacity:0.341" fill="#c5c7c3" d="M 126.5,133.5 C 127.162,135.304 127.495,137.304 127.5,139.5C 127.713,142.527 127.047,145.193 125.5,147.5C 126.314,142.881 126.647,138.214 126.5,133.5 Z"/></g>
<g><path style="opacity:0.655" fill="#81817c" d="M 22.5,129.5 C 21.7255,134.797 21.3921,140.13 21.5,145.5C 20.5869,140.647 20.2536,135.814 20.5,131C 21.0442,130.283 21.7109,129.783 22.5,129.5 Z"/></g>
<g><path style="opacity:0.2" fill="#fff7c8" d="M 43.5,140.5 C 45.0269,140.427 46.0269,141.094 46.5,142.5C 44.9731,142.573 43.9731,141.906 43.5,140.5 Z"/></g>
<g><path style="opacity:0.012" fill="#e7e6e5" d="M 32.5,141.5 C 32.8333,141.5 33.1667,141.5 33.5,141.5C 35.9535,143.042 36.6201,145.042 35.5,147.5C 34.5987,146.71 33.9321,145.71 33.5,144.5C 33.9382,144.565 34.2716,144.399 34.5,144C 33.244,143.583 32.5774,142.75 32.5,141.5 Z"/></g>
<g><path style="opacity:0.078" fill="#fef8aa" d="M 106.5,136.5 C 107.622,138.288 107.789,140.288 107,142.5C 106.228,143.849 105.061,144.682 103.5,145C 86.6465,145.113 69.8131,145.28 53,145.5C 50.4462,145.114 48.2796,144.114 46.5,142.5C 66.1509,143.784 85.8176,143.784 105.5,142.5C 106.348,140.591 106.682,138.591 106.5,136.5 Z"/></g>
<g><path style="opacity:0.004" fill="#e8e8e7" d="M 108.5,150.5 C 108.158,151.338 107.492,151.672 106.5,151.5C 106.367,148.075 107.033,147.742 108.5,150.5 Z"/></g>
<g><path style="opacity:0.988" fill="#848483" d="M 39.5,150.5 C 37.8212,150.715 36.8212,150.048 36.5,148.5C 37.1174,148.611 37.6174,148.944 38,149.5C 39.0875,147.068 39.5875,147.402 39.5,150.5 Z"/></g>
<g><path style="opacity:0.043" fill="#dddddd" d="M 42.5,150.5 C 41.8333,150.5 41.5,150.833 41.5,151.5C 40.5084,151.672 39.8417,151.338 39.5,150.5C 40.4722,147.902 41.4722,147.902 42.5,150.5 Z"/></g>
<g><path style="opacity:0.018" fill="#f3f3f3" d="M 105.5,151.5 C 84.1667,152.833 62.8333,152.833 41.5,151.5C 42.1667,151.5 42.5,151.167 42.5,150.5C 43.2646,150.077 44.0979,149.743 45,149.5C 46.7215,149.611 46.8882,150.111 45.5,151C 65.4972,151.5 85.4972,151.667 105.5,151.5 Z"/></g>
<g><path style="opacity:0.973" fill="#6b6a70" d="M 123.5,152.5 C 122.974,154.23 121.974,155.564 120.5,156.5C 120.5,155.167 120.5,153.833 120.5,152.5C 121.5,152.5 122.5,152.5 123.5,152.5 Z"/></g>
<g><path style="opacity:0.004" fill="#fefffe" d="M 25.5,154.5 C 24.8333,155.167 24.8333,155.167 25.5,154.5 Z"/></g>
<g><path style="opacity:0.01" fill="#fefffe" d="M 26.5,155.5 C 27.5,155.833 28.1667,156.5 28.5,157.5C 27.1667,157.5 26.5,156.833 26.5,155.5 Z"/></g>
<g><path style="opacity:0.013" fill="#ececec" d="M 120.5,156.5 C 120.368,159.007 119.368,159.674 117.5,158.5C 118.29,157.599 119.29,156.932 120.5,156.5 Z"/></g>
<g><path style="opacity:0.012" fill="#e8e8e7" d="M 110.5,162.5 C 110.842,161.662 111.508,161.328 112.5,161.5C 112.591,163.698 111.925,164.031 110.5,162.5 Z"/></g>
<g><path style="opacity:0.008" fill="#fbfbfb" d="M 35.5,186.5 C 35.1667,186.5 34.8333,186.5 34.5,186.5C 32.2188,186.077 30.5521,186.744 29.5,188.5C 28.6862,190.631 28.1862,192.964 28,195.5C 27.2177,192.69 26.3844,190.023 25.5,187.5C 25.5,187.167 25.5,186.833 25.5,186.5C 28.9189,183.909 32.2522,183.909 35.5,186.5 Z"/></g>
<g><path style="opacity:0.999" fill="#121110" d="M 15.5,187.5 C 15.427,189.027 16.0937,190.027 17.5,190.5C 17.5,190.833 17.5,191.167 17.5,191.5C 17.5,193.167 17.5,194.833 17.5,196.5C 15.8333,196.5 14.1667,196.5 12.5,196.5C 12.7678,194.901 12.4345,193.568 11.5,192.5C 10.5,191.167 9.5,191.167 8.5,192.5C 7.3467,198.653 7.18003,204.986 8,211.5C 9.29167,212.791 10.4583,212.791 11.5,211.5C 12.4345,210.432 12.7678,209.099 12.5,207.5C 14.1667,207.5 15.8333,207.5 17.5,207.5C 17.8711,211.003 16.8711,214.003 14.5,216.5C 10.5559,216.887 6.88921,216.22 3.5,214.5C 2.53601,207.254 2.20267,199.92 2.5,192.5C 2.26269,191.209 2.59603,190.209 3.5,189.5C 4.83333,188.833 5.83333,187.833 6.5,186.5C 7.4486,185.848 8.61527,185.514 10,185.5C 12.2206,185.393 14.0539,186.06 15.5,187.5 Z M 11.5,211.5 C 8.99908,211.489 8.83242,210.822 11,209.5C 11.4643,210.094 11.631,210.761 11.5,211.5 Z"/></g>
<g><path style="opacity:1" fill="#080807" d="M 29.5,198.5 C 29.5,195.167 29.5,191.833 29.5,188.5C 30.5521,186.744 32.2188,186.077 34.5,186.5C 34.5,196.5 34.5,206.5 34.5,216.5C 32.8333,216.5 31.1667,216.5 29.5,216.5C 29.5,215.833 29.5,215.167 29.5,214.5C 29.5,211.5 29.5,208.5 29.5,205.5C 28.4324,204.566 27.099,204.232 25.5,204.5C 24.5166,208.298 24.1832,212.298 24.5,216.5C 23.1667,216.5 21.8333,216.5 20.5,216.5C 20.5,206.5 20.5,196.5 20.5,186.5C 21.8333,186.5 23.1667,186.5 24.5,186.5C 24.5,190.833 24.5,195.167 24.5,199.5C 26.4147,199.784 28.0813,199.451 29.5,198.5 Z M 25.5,187.5 C 26.3844,190.023 27.2177,192.69 28,195.5C 28.1862,192.964 28.6862,190.631 29.5,188.5C 29.5,191.833 29.5,195.167 29.5,198.5C 28.1266,198.657 26.7932,198.49 25.5,198C 25.6584,194.712 25.6584,191.212 25.5,187.5 Z"/></g>
<g><path style="opacity:0.999" fill="#010000" d="M 67.5,186.5 C 67.5,188.167 67.5,189.833 67.5,191.5C 65.8333,191.5 64.1667,191.5 62.5,191.5C 61.5073,199.65 61.1739,207.983 61.5,216.5C 60.1667,216.5 58.8333,216.5 57.5,216.5C 57.5,208.833 57.5,201.167 57.5,193.5C 57.5,193.167 57.5,192.833 57.5,192.5C 56.0813,191.549 54.4147,191.216 52.5,191.5C 52.5,189.833 52.5,188.167 52.5,186.5C 57.5,186.5 62.5,186.5 67.5,186.5 Z"/></g>
<g><path style="opacity:1" fill="#0f0e0d" d="M 80.5,186.5 C 82.0618,186.733 83.3951,187.4 84.5,188.5C 84.5,188.833 84.5,189.167 84.5,189.5C 84.5,190.167 84.8333,190.5 85.5,190.5C 85.5,193.5 85.5,196.5 85.5,199.5C 84.0937,199.973 83.427,200.973 83.5,202.5C 81.1493,203.916 81.1493,205.583 83.5,207.5C 83.5,207.833 83.5,208.167 83.5,208.5C 83.1201,210.698 83.7868,212.365 85.5,213.5C 85.5,213.833 85.5,214.167 85.5,214.5C 84.4479,216.256 82.7812,216.923 80.5,216.5C 80.7373,215.209 80.404,214.209 79.5,213.5C 79.5,213.167 79.5,212.833 79.5,212.5C 79.7373,211.209 79.404,210.209 78.5,209.5C 78.1667,209.5 77.8333,209.5 77.5,209.5C 77.5,208.167 77.5,206.833 77.5,205.5C 76.791,204.596 75.791,204.263 74.5,204.5C 74.5,208.5 74.5,212.5 74.5,216.5C 73.1667,216.5 71.8333,216.5 70.5,216.5C 70.5,206.5 70.5,196.5 70.5,186.5C 73.8333,186.5 77.1667,186.5 80.5,186.5 Z M 79.5,192.5 C 79.7845,194.415 79.4511,196.081 78.5,197.5C 77.8106,198.774 76.9772,198.774 76,197.5C 75.5065,195.866 75.3398,194.199 75.5,192.5C 76.8333,192.5 78.1667,192.5 79.5,192.5 Z M 75.5,206.5 C 75.8417,205.662 76.5084,205.328 77.5,205.5C 77.5,206.833 77.5,208.167 77.5,209.5C 76.8333,208.5 76.1667,207.5 75.5,206.5 Z"/></g>
<g><path style="opacity:0.006" fill="#fdfdfd" d="M 85.5,190.5 C 84.8333,190.5 84.5,190.167 84.5,189.5C 85.8333,189.167 85.8333,188.833 84.5,188.5C 84.8212,186.952 85.8212,186.285 87.5,186.5C 87.665,189.85 87.4983,193.183 87,196.5C 86.8091,194.292 86.3091,192.292 85.5,190.5 Z"/></g>
<g><path style="opacity:1" fill="#0f0f0e" d="M 94.5,186.5 C 94.5,187.833 94.5,189.167 94.5,190.5C 94.5,192.167 94.5,193.833 94.5,195.5C 94.5,199.167 94.5,202.833 94.5,206.5C 94.5,209.833 94.5,213.167 94.5,216.5C 92.8333,216.5 91.1667,216.5 89.5,216.5C 89.5,206.5 89.5,196.5 89.5,186.5C 91.1667,186.5 92.8333,186.5 94.5,186.5 Z"/></g>
<g><path style="opacity:0.007" fill="#eeeeed" d="M 102.5,186.5 C 100.833,186.5 99.1667,186.5 97.5,186.5C 97.5,187.5 97.5,188.5 97.5,189.5C 98.4511,190.919 98.7845,192.585 98.5,194.5C 99.4614,196.265 99.7947,198.265 99.5,200.5C 100.451,201.919 100.784,203.585 100.5,205.5C 101.461,207.265 101.795,209.265 101.5,211.5C 100.662,211.842 100.328,212.508 100.5,213.5C 99.71,212.391 99.21,211.058 99,209.5C 98.3333,208.167 97.6667,208.167 97,209.5C 96.6232,208.058 95.7899,207.058 94.5,206.5C 94.5,202.833 94.5,199.167 94.5,195.5C 95.8333,193.833 95.8333,192.167 94.5,190.5C 94.5,189.167 94.5,187.833 94.5,186.5C 97.272,185.233 99.9387,185.233 102.5,186.5 Z"/></g>
<g><path style="opacity:0.999" fill="#1e1e1d" d="M 102.5,186.5 C 102.328,187.492 102.662,188.158 103.5,188.5C 103.671,193.196 104.171,197.863 105,202.5C 105.44,200.134 105.94,197.801 106.5,195.5C 107.434,194.432 107.768,193.099 107.5,191.5C 107.5,190.167 107.5,188.833 107.5,187.5C 109.379,186.659 111.379,186.325 113.5,186.5C 113.5,188.167 113.5,189.833 113.5,191.5C 112.596,192.209 112.263,193.209 112.5,194.5C 112.784,196.415 112.451,198.081 111.5,199.5C 110.549,200.919 110.216,202.585 110.5,204.5C 110.478,208.611 109.811,212.611 108.5,216.5C 106.364,217.793 104.364,217.793 102.5,216.5C 102.768,214.901 102.434,213.568 101.5,212.5C 101.5,212.167 101.5,211.833 101.5,211.5C 101.795,209.265 101.461,207.265 100.5,205.5C 100.784,203.585 100.451,201.919 99.5,200.5C 99.7947,198.265 99.4614,196.265 98.5,194.5C 98.7845,192.585 98.4511,190.919 97.5,189.5C 97.5,188.5 97.5,187.5 97.5,186.5C 99.1667,186.5 100.833,186.5 102.5,186.5 Z M 103.5,188.5 C 104.167,189.833 104.833,191.167 105.5,192.5C 106.11,193.391 106.443,194.391 106.5,195.5C 105.94,197.801 105.44,200.134 105,202.5C 104.171,197.863 103.671,193.196 103.5,188.5 Z"/></g>
<g><path style="opacity:0.006" fill="#f8f8f7" d="M 102.5,186.5 C 105.91,186.384 107.244,188.05 106.5,191.5C 105.833,191.5 105.5,191.833 105.5,192.5C 104.833,191.167 104.167,189.833 103.5,188.5C 102.662,188.158 102.328,187.492 102.5,186.5 Z"/></g>
<g><path style="opacity:1" fill="#010000" d="M 115.5,216.5 C 115.5,212.833 115.5,209.167 115.5,205.5C 115.5,199.167 115.5,192.833 115.5,186.5C 117.167,186.5 118.833,186.5 120.5,186.5C 120.5,196.5 120.5,206.5 120.5,216.5C 118.833,216.5 117.167,216.5 115.5,216.5 Z"/></g>
<g><path style="opacity:0.006" fill="#e1e1df" d="M 124.5,190.5 C 124.227,198.888 124.56,207.221 125.5,215.5C 122.288,217.653 118.955,217.986 115.5,216.5C 117.167,216.5 118.833,216.5 120.5,216.5C 120.5,206.5 120.5,196.5 120.5,186.5C 118.833,186.5 117.167,186.5 115.5,186.5C 115.5,192.833 115.5,199.167 115.5,205.5C 113.827,206.343 112.66,207.676 112,209.5C 111.802,207.618 111.302,205.952 110.5,204.5C 110.216,202.585 110.549,200.919 111.5,199.5C 111.351,200.552 111.517,201.552 112,202.5C 113.021,199.895 113.855,197.228 114.5,194.5C 114.03,193.537 113.363,193.537 112.5,194.5C 112.263,193.209 112.596,192.209 113.5,191.5C 113.5,189.833 113.5,188.167 113.5,186.5C 111.379,186.325 109.379,186.659 107.5,187.5C 109.397,186.195 111.731,185.529 114.5,185.5C 116.833,185.667 119.167,185.833 121.5,186C 122.897,187.31 123.897,188.81 124.5,190.5 Z"/></g>
<g><path style="opacity:1" fill="#171615" d="M 138.5,188.5 C 139.469,196.748 139.802,205.082 139.5,213.5C 139.5,215.5 138.5,216.5 136.5,216.5C 133.5,216.5 130.5,216.5 127.5,216.5C 126.508,216.672 125.842,216.338 125.5,215.5C 124.56,207.221 124.227,198.888 124.5,190.5C 124.916,188.248 126.249,186.748 128.5,186C 132.463,184.863 135.796,185.697 138.5,188.5 Z M 133.5,193.5 C 133.833,193.5 134.167,193.5 134.5,193.5C 134.5,199.167 134.5,204.833 134.5,210.5C 132.833,211.833 131.167,211.833 129.5,210.5C 129.5,209.833 129.5,209.167 129.5,208.5C 130.458,208.953 131.292,209.619 132,210.5C 132.393,204.517 132.893,198.85 133.5,193.5 Z"/></g>
<g><path style="opacity:0.545" fill="#94938f" d="M 6.5,186.5 C 5.83333,187.833 4.83333,188.833 3.5,189.5C 3.5,187.5 4.5,186.5 6.5,186.5 Z"/></g>
<g><path style="opacity:0.173" fill="#c2c1be" d="M 15.5,187.5 C 16.9063,187.973 17.573,188.973 17.5,190.5C 16.0937,190.027 15.427,189.027 15.5,187.5 Z"/></g>
<g><path style="opacity:0.009" fill="#fff7f4" d="M 2.5,192.5 C 2.20267,199.92 2.53601,207.254 3.5,214.5C 2.5041,214.586 1.67076,214.252 1,213.5C 0.333333,205.833 0.333333,198.167 1,190.5C 1.27842,191.416 1.77842,192.082 2.5,192.5 Z"/></g>
<g><path style="opacity:0.007" fill="#f7f7f7" d="M 67.5,186.5 C 68.6408,189.64 68.8075,192.973 68,196.5C 66.6381,195.075 65.1381,194.242 63.5,194C 67.2259,192.957 66.8926,192.457 62.5,192.5C 62.5,192.167 62.5,191.833 62.5,191.5C 64.1667,191.5 65.8333,191.5 67.5,191.5C 67.5,189.833 67.5,188.167 67.5,186.5 Z"/></g>
<g><path style="opacity:1" fill="#878786" d="M 130.5,192.5 C 131.946,191.387 133.613,191.22 135.5,192C 134.944,192.383 134.611,192.883 134.5,193.5C 134.167,193.5 133.833,193.5 133.5,193.5C 132.791,192.596 131.791,192.263 130.5,192.5 Z"/></g>
<g><path style="opacity:0.009" fill="#f8f8f8" d="M 67.5,186.5 C 62.5,186.5 57.5,186.5 52.5,186.5C 52.5,188.167 52.5,189.833 52.5,191.5C 54.4147,191.216 56.0813,191.549 57.5,192.5C 54.8333,192.833 54.8333,193.167 57.5,193.5C 57.5,201.167 57.5,208.833 57.5,216.5C 55.8222,210.669 54.8222,204.503 54.5,198C 55.7908,195.91 55.1242,194.576 52.5,194C 54.8776,193.026 54.5443,192.359 51.5,192C 49.0777,189.888 49.0777,187.888 51.5,186C 57.0164,185.183 62.3497,185.349 67.5,186.5 Z"/></g>
<g><path style="opacity:0.008" fill="#fefffe" d="M 130.5,193.5 C 131.5,193.5 132.5,193.5 133.5,193.5C 132.893,198.85 132.393,204.517 132,210.5C 131.292,209.619 130.458,208.953 129.5,208.5C 129.5,208.167 129.5,207.833 129.5,207.5C 130.486,203.03 130.819,198.363 130.5,193.5 Z"/></g>
<g><path style="opacity:0.475" fill="#b4b2ae" d="M 106.5,191.5 C 106.833,191.5 107.167,191.5 107.5,191.5C 107.768,193.099 107.434,194.432 106.5,195.5C 106.443,194.391 106.11,193.391 105.5,192.5C 106.167,192.5 106.5,192.167 106.5,191.5 Z"/></g>
<g><path style="opacity:0.553" fill="#8a8a86" d="M 141.5,188.5 C 141.5,188.833 141.5,189.167 141.5,189.5C 140.833,197.5 140.167,205.5 139.5,213.5C 139.802,205.082 139.469,196.748 138.5,188.5C 139.5,187.167 140.5,187.167 141.5,188.5 Z"/></g>
<g><path style="opacity:0.007" fill="#f1f0ee" d="M 35.5,196.5 C 37.0301,197.211 38.3634,198.211 39.5,199.5C 39.5,199.833 39.5,200.167 39.5,200.5C 39.5,201.833 39.5,203.167 39.5,204.5C 42.8333,204.5 46.1667,204.5 49.5,204.5C 49.8333,204.5 50.1667,204.5 50.5,204.5C 46.9366,207.74 43.1033,208.073 39,205.5C 38.6667,205.833 38.3333,206.167 38,206.5C 36.9808,204.498 36.1475,202.498 35.5,200.5C 35.5,199.167 35.5,197.833 35.5,196.5 Z"/></g>
<g><path style="opacity:0.006" fill="#e3e3e2" d="M 88.5,215.5 C 88.5,215.833 88.5,216.167 88.5,216.5C 85.728,217.767 83.0613,217.767 80.5,216.5C 82.7812,216.923 84.4479,216.256 85.5,214.5C 86.8333,214.167 86.8333,213.833 85.5,213.5C 83.7868,212.365 83.1201,210.698 83.5,208.5C 84.2679,209.263 84.7679,210.263 85,211.5C 85.8258,208.788 85.3258,206.455 83.5,204.5C 83.5,204.167 83.5,203.833 83.5,203.5C 84.8333,203.167 84.8333,202.833 83.5,202.5C 83.427,200.973 84.0937,199.973 85.5,199.5C 86.2216,199.082 86.7216,198.416 87,197.5C 86.6471,203.628 87.1471,209.628 88.5,215.5 Z"/></g>
<g><path style="opacity:0.514" fill="#989895" d="M 79.5,192.5 C 80.6225,194.288 80.7891,196.288 80,198.5C 78.3333,199.833 76.6667,199.833 75,198.5C 74.5034,196.19 74.3367,193.857 74.5,191.5C 76.4147,191.216 78.0813,191.549 79.5,192.5 Z M 79.5,192.5 C 79.7845,194.415 79.4511,196.081 78.5,197.5C 77.8106,198.774 76.9772,198.774 76,197.5C 75.5065,195.866 75.3398,194.199 75.5,192.5C 76.8333,192.5 78.1667,192.5 79.5,192.5 Z"/></g>
<g><path style="opacity:0.009" fill="#fefffe" d="M 78.5,197.5 C 77.7515,196.469 77.0848,195.302 76.5,194C 76.8333,193.833 77.1667,193.667 77.5,193.5C 78.4287,194.689 78.762,196.022 78.5,197.5 Z"/></g>
<g><path style="opacity:0.525" fill="#787874" d="M 25.5,186.5 C 25.5,186.833 25.5,187.167 25.5,187.5C 25.6584,191.212 25.6584,194.712 25.5,198C 26.7932,198.49 28.1266,198.657 29.5,198.5C 28.0813,199.451 26.4147,199.784 24.5,199.5C 24.5,195.167 24.5,190.833 24.5,186.5C 23.1667,186.5 21.8333,186.5 20.5,186.5C 20.5,196.5 20.5,206.5 20.5,216.5C 21.8333,216.5 23.1667,216.5 24.5,216.5C 24.1832,212.298 24.5166,208.298 25.5,204.5C 25.5,204.833 25.5,205.167 25.5,205.5C 25.5,209.5 25.5,213.5 25.5,217.5C 23.5,217.5 21.5,217.5 19.5,217.5C 19.5,215.833 19.5,214.167 19.5,212.5C 19.5,203.5 19.5,194.5 19.5,185.5C 21.7354,185.205 23.7354,185.539 25.5,186.5 Z"/></g>
<g><path style="opacity:0.773" fill="#575651" d="M 50.5,204.5 C 50.1667,204.5 49.8333,204.5 49.5,204.5C 49.5,203.167 49.5,201.833 49.5,200.5C 46.1667,200.5 42.8333,200.5 39.5,200.5C 39.5,200.167 39.5,199.833 39.5,199.5C 42.5192,199.622 45.6858,199.289 49,198.5C 50.3186,200.25 50.8186,202.25 50.5,204.5 Z"/></g>
<g><path style="opacity:0.999" fill="#020100" d="M 39.5,200.5 C 42.8333,200.5 46.1667,200.5 49.5,200.5C 49.5,201.833 49.5,203.167 49.5,204.5C 46.1667,204.5 42.8333,204.5 39.5,204.5C 39.5,203.167 39.5,201.833 39.5,200.5 Z"/></g>
<g><path style="opacity:0.007" fill="#e6e5e4" d="M 11.5,192.5 C 12.4345,193.568 12.7678,194.901 12.5,196.5C 14.1667,196.5 15.8333,196.5 17.5,196.5C 17.5,194.833 17.5,193.167 17.5,191.5C 18.6378,194.304 18.8045,197.304 18,200.5C 15.834,198.879 13.334,198.045 10.5,198C 9.80945,196.933 9.30945,195.766 9,194.5C 8.33333,198.833 8.33333,203.167 9,207.5C 9.63412,201.866 10.1341,201.532 10.5,206.5C 13.1667,206.5 15.8333,206.5 18.5,206.5C 18.2053,208.735 18.5386,210.735 19.5,212.5C 19.5,214.167 19.5,215.833 19.5,217.5C 17.7085,217.634 16.0418,217.301 14.5,216.5C 16.8711,214.003 17.8711,211.003 17.5,207.5C 15.8333,207.5 14.1667,207.5 12.5,207.5C 12.7678,209.099 12.4345,210.432 11.5,211.5C 10.4583,212.791 9.29167,212.791 8,211.5C 7.18003,204.986 7.3467,198.653 8.5,192.5C 9.5,191.167 10.5,191.167 11.5,192.5 Z M 11.5,211.5 C 11.631,210.761 11.4643,210.094 11,209.5C 8.83242,210.822 8.99908,211.489 11.5,211.5 Z"/></g>
<g><path style="opacity:0.529" fill="#868581" d="M 80.5,186.5 C 77.1667,186.5 73.8333,186.5 70.5,186.5C 70.5,196.5 70.5,206.5 70.5,216.5C 71.8333,216.5 73.1667,216.5 74.5,216.5C 74.5,212.5 74.5,208.5 74.5,204.5C 75.791,204.263 76.791,204.596 77.5,205.5C 76.5084,205.328 75.8417,205.662 75.5,206.5C 75.5,207.833 75.5,209.167 75.5,210.5C 75.5,212.167 75.5,213.833 75.5,215.5C 75.5,216.167 75.5,216.833 75.5,217.5C 73.5,217.5 71.5,217.5 69.5,217.5C 69.5,206.833 69.5,196.167 69.5,185.5C 73.3714,185.185 77.0381,185.518 80.5,186.5 Z"/></g>
<g><path style="opacity:0.004" fill="#fefffe" d="M 17.5,203.5 C 18.7733,204.077 18.7733,204.743 17.5,205.5C 16.537,205.03 16.537,204.363 17.5,203.5 Z"/></g>
<g><path style="opacity:0.435" fill="#a8a7a6" d="M 83.5,202.5 C 83.5,202.833 83.5,203.167 83.5,203.5C 82.1667,203.833 82.1667,204.167 83.5,204.5C 83.5,205.5 83.5,206.5 83.5,207.5C 81.1493,205.583 81.1493,203.916 83.5,202.5 Z"/></g>
<g><path style="opacity:0.01" fill="#fefffe" d="M 25.5,205.5 C 25.5,205.167 25.5,204.833 25.5,204.5C 27.099,204.232 28.4324,204.566 29.5,205.5C 28.7321,206.263 28.2321,207.263 28,208.5C 27.7645,206.881 26.9311,205.881 25.5,205.5 Z"/></g>
<g><path style="opacity:0.369" fill="#9a9a93" d="M 34.5,186.5 C 34.8333,186.5 35.1667,186.5 35.5,186.5C 35.5,189.833 35.5,193.167 35.5,196.5C 35.5,197.833 35.5,199.167 35.5,200.5C 35.5,206.167 35.5,211.833 35.5,217.5C 33.2646,217.795 31.2646,217.461 29.5,216.5C 31.1667,216.5 32.8333,216.5 34.5,216.5C 34.5,206.5 34.5,196.5 34.5,186.5 Z"/></g>
<g><path style="opacity:0.733" fill="#4c4d48" d="M 62.5,191.5 C 62.5,191.833 62.5,192.167 62.5,192.5C 62.5,200.833 62.5,209.167 62.5,217.5C 60.5853,217.784 58.9187,217.451 57.5,216.5C 58.8333,216.5 60.1667,216.5 61.5,216.5C 61.1739,207.983 61.5073,199.65 62.5,191.5 Z"/></g>
<g><path style="opacity:0.007" fill="#f2f2f2" d="M 75.5,206.5 C 76.1667,207.5 76.8333,208.5 77.5,209.5C 77.8333,212.167 78.1667,212.167 78.5,209.5C 79.404,210.209 79.7373,211.209 79.5,212.5C 78.1667,212.833 78.1667,213.167 79.5,213.5C 80.404,214.209 80.7373,215.209 80.5,216.5C 78.9582,217.301 77.2915,217.634 75.5,217.5C 75.5,216.833 75.5,216.167 75.5,215.5C 76.8333,213.833 76.8333,212.167 75.5,210.5C 75.5,209.167 75.5,207.833 75.5,206.5 Z"/></g>
<g><path style="opacity:0.006" fill="#fefffe" d="M 29.5,214.5 C 29.5,215.167 29.5,215.833 29.5,216.5C 28.5041,216.414 27.6708,216.748 27,217.5C 26.6717,214.793 27.005,212.126 28,209.5C 28.1981,211.382 28.6981,213.048 29.5,214.5 Z"/></g>
<g><path style="opacity:0.502" fill="#83827c" d="M 94.5,186.5 C 92.8333,186.5 91.1667,186.5 89.5,186.5C 89.5,196.5 89.5,206.5 89.5,216.5C 91.1667,216.5 92.8333,216.5 94.5,216.5C 92.5,217.833 90.5,217.833 88.5,216.5C 88.5,216.167 88.5,215.833 88.5,215.5C 88.5,205.5 88.5,195.5 88.5,185.5C 90.7354,185.205 92.7354,185.539 94.5,186.5 Z"/></g>
<g><path style="opacity:0.004" fill="#fefffe" d="M 67.5,211.5 C 68.6129,212.946 68.7796,214.613 68,216.5C 67.5065,214.866 67.3398,213.199 67.5,211.5 Z"/></g>
<g><path style="opacity:0.047" fill="#b3b2b1" d="M 129.5,210.5 C 131.167,211.833 132.833,211.833 134.5,210.5C 134.209,211.649 133.376,212.316 132,212.5C 130.624,212.316 129.791,211.649 129.5,210.5 Z"/></g>
<g><path style="opacity:0.004" fill="#efefee" d="M 101.5,212.5 C 102.434,213.568 102.768,214.901 102.5,216.5C 99.9931,216.368 99.3264,215.368 100.5,213.5C 101.167,213.5 101.5,213.167 101.5,212.5 Z"/></g>
<g><path style="opacity:0.647" fill="#828179" d="M 3.5,214.5 C 6.88921,216.22 10.5559,216.887 14.5,216.5C 11.6965,217.638 8.69646,217.805 5.5,217C 4.61947,216.292 3.9528,215.458 3.5,214.5 Z"/></g>
<g><path style="opacity:0.655" fill="#959590" d="M 127.5,216.5 C 130.5,216.5 133.5,216.5 136.5,216.5C 135.167,217.167 133.833,217.833 132.5,218.5C 131.833,218.5 131.167,218.5 130.5,218.5C 129.5,217.833 128.5,217.167 127.5,216.5 Z"/></g>
</svg>
